<mxfile host="Electron" agent="Mozilla/5.0 (Windows NT 10.0; Win64; x64) AppleWebKit/537.36 (KHTML, like Gecko) draw.io/26.2.15 Chrome/134.0.6998.205 Electron/35.2.1 Safari/537.36" version="26.2.15">
  <diagram name="Страница — 1" id="MMgMjOwD4D79rNEsgax0">
    <mxGraphModel dx="1427" dy="974" grid="1" gridSize="10" guides="1" tooltips="1" connect="1" arrows="1" fold="1" page="1" pageScale="1" pageWidth="1169" pageHeight="827" math="0" shadow="0">
      <root>
        <mxCell id="0" />
        <mxCell id="1" parent="0" />
        <mxCell id="lgsHo6YYuJnd4zfrtJT4-15" value="Балансирует&lt;br&gt;запросы к БД" style="edgeStyle=orthogonalEdgeStyle;rounded=0;orthogonalLoop=1;jettySize=auto;html=1;startArrow=none;startFill=0;fontSize=13;entryX=1.007;entryY=0.571;entryDx=0;entryDy=0;entryPerimeter=0;" parent="1" source="lgsHo6YYuJnd4zfrtJT4-12" target="lgsHo6YYuJnd4zfrtJT4-10" edge="1">
          <mxGeometry y="-20" relative="1" as="geometry">
            <mxPoint as="offset" />
          </mxGeometry>
        </mxCell>
        <mxCell id="lgsHo6YYuJnd4zfrtJT4-12" value="haproxy" style="rounded=0;whiteSpace=wrap;html=1;fontSize=16;fillColor=#fff2cc;strokeColor=#d6b656;" parent="1" vertex="1">
          <mxGeometry x="580" y="250" width="120" height="60" as="geometry" />
        </mxCell>
        <mxCell id="lgsHo6YYuJnd4zfrtJT4-17" value="Забирает&lt;br&gt;данные из&lt;br&gt;БД" style="edgeStyle=orthogonalEdgeStyle;rounded=0;orthogonalLoop=1;jettySize=auto;html=1;entryX=1;entryY=0.5;entryDx=0;entryDy=0;fontSize=13;" parent="1" source="lgsHo6YYuJnd4zfrtJT4-13" target="lgsHo6YYuJnd4zfrtJT4-12" edge="1">
          <mxGeometry y="-30" relative="1" as="geometry">
            <mxPoint as="offset" />
          </mxGeometry>
        </mxCell>
        <mxCell id="lgsHo6YYuJnd4zfrtJT4-13" value="Apache Superset" style="rounded=0;whiteSpace=wrap;html=1;fontSize=16;fillColor=#ffe6cc;strokeColor=#d79b00;" parent="1" vertex="1">
          <mxGeometry x="800" y="250" width="120" height="60" as="geometry" />
        </mxCell>
        <mxCell id="lgsHo6YYuJnd4zfrtJT4-16" value="Забирает&lt;br&gt;данные из&lt;br&gt;БД" style="edgeStyle=orthogonalEdgeStyle;rounded=0;orthogonalLoop=1;jettySize=auto;html=1;entryX=0.75;entryY=1;entryDx=0;entryDy=0;fontSize=13;" parent="1" source="lgsHo6YYuJnd4zfrtJT4-14" target="lgsHo6YYuJnd4zfrtJT4-12" edge="1">
          <mxGeometry x="-0.5833" y="-30" relative="1" as="geometry">
            <mxPoint as="offset" />
          </mxGeometry>
        </mxCell>
        <mxCell id="lgsHo6YYuJnd4zfrtJT4-14" value="DBeaver" style="rounded=0;whiteSpace=wrap;html=1;fontSize=16;fillColor=#ffe6cc;strokeColor=#d79b00;" parent="1" vertex="1">
          <mxGeometry x="800" y="390" width="120" height="60" as="geometry" />
        </mxCell>
        <mxCell id="lgsHo6YYuJnd4zfrtJT4-18" value="Prometheus" style="rounded=0;whiteSpace=wrap;html=1;fontSize=16;fillColor=#d5e8d4;strokeColor=#82b366;" parent="1" vertex="1">
          <mxGeometry x="300" y="694" width="120" height="60" as="geometry" />
        </mxCell>
        <mxCell id="lgsHo6YYuJnd4zfrtJT4-20" value="Забирает&lt;br&gt;данные&amp;nbsp;метрик" style="edgeStyle=orthogonalEdgeStyle;rounded=0;orthogonalLoop=1;jettySize=auto;html=1;fontSize=13;" parent="1" source="lgsHo6YYuJnd4zfrtJT4-19" target="lgsHo6YYuJnd4zfrtJT4-18" edge="1">
          <mxGeometry x="-0.0769" y="-24" relative="1" as="geometry">
            <mxPoint as="offset" />
          </mxGeometry>
        </mxCell>
        <mxCell id="lgsHo6YYuJnd4zfrtJT4-19" value="Grafana" style="rounded=0;whiteSpace=wrap;html=1;fontSize=16;fillColor=#d5e8d4;strokeColor=#82b366;" parent="1" vertex="1">
          <mxGeometry x="550" y="694" width="120" height="60" as="geometry" />
        </mxCell>
        <mxCell id="lgsHo6YYuJnd4zfrtJT4-25" value="Отображает&lt;br&gt;дашборды" style="edgeStyle=orthogonalEdgeStyle;rounded=0;orthogonalLoop=1;jettySize=auto;html=1;fontSize=13;" parent="1" source="lgsHo6YYuJnd4zfrtJT4-24" target="lgsHo6YYuJnd4zfrtJT4-13" edge="1">
          <mxGeometry x="-0.0435" y="-20" relative="1" as="geometry">
            <mxPoint as="offset" />
          </mxGeometry>
        </mxCell>
        <mxCell id="lgsHo6YYuJnd4zfrtJT4-27" style="edgeStyle=orthogonalEdgeStyle;rounded=0;orthogonalLoop=1;jettySize=auto;html=1;exitX=0.5;exitY=1;exitDx=0;exitDy=0;entryX=1;entryY=0.5;entryDx=0;entryDy=0;" parent="1" source="lgsHo6YYuJnd4zfrtJT4-24" target="lgsHo6YYuJnd4zfrtJT4-14" edge="1">
          <mxGeometry relative="1" as="geometry" />
        </mxCell>
        <mxCell id="lgsHo6YYuJnd4zfrtJT4-24" value="Пользователи" style="shape=actor;whiteSpace=wrap;html=1;verticalAlign=top;labelPosition=center;verticalLabelPosition=bottom;align=center;fontSize=16;" parent="1" vertex="1">
          <mxGeometry x="1035" y="235" width="60" height="90" as="geometry" />
        </mxCell>
        <mxCell id="lgsHo6YYuJnd4zfrtJT4-32" value="Сохраняет&lt;br&gt;данные в&lt;br&gt;БД" style="edgeStyle=orthogonalEdgeStyle;rounded=0;orthogonalLoop=1;jettySize=auto;html=1;exitX=0.5;exitY=0;exitDx=0;exitDy=0;entryX=0.25;entryY=1;entryDx=0;entryDy=0;fontSize=13;" parent="1" source="lgsHo6YYuJnd4zfrtJT4-29" target="lgsHo6YYuJnd4zfrtJT4-12" edge="1">
          <mxGeometry relative="1" as="geometry" />
        </mxCell>
        <mxCell id="lgsHo6YYuJnd4zfrtJT4-29" value="NiFi" style="rounded=0;whiteSpace=wrap;html=1;fontSize=16;fillColor=#d5e8d4;strokeColor=#82b366;" parent="1" vertex="1">
          <mxGeometry x="550" y="540" width="120" height="60" as="geometry" />
        </mxCell>
        <mxCell id="lgsHo6YYuJnd4zfrtJT4-33" value="Забирает&lt;br&gt;данные" style="edgeStyle=orthogonalEdgeStyle;rounded=0;orthogonalLoop=1;jettySize=auto;html=1;exitX=0;exitY=0.5;exitDx=0;exitDy=0;entryX=1;entryY=0.5;entryDx=0;entryDy=0;entryPerimeter=0;fontSize=13;" parent="1" source="lgsHo6YYuJnd4zfrtJT4-29" target="lgsHo6YYuJnd4zfrtJT4-31" edge="1">
          <mxGeometry x="-0.5758" y="-20" relative="1" as="geometry">
            <mxPoint as="offset" />
          </mxGeometry>
        </mxCell>
        <mxCell id="lgsHo6YYuJnd4zfrtJT4-39" value="Отображает интерфейс" style="edgeStyle=orthogonalEdgeStyle;rounded=0;orthogonalLoop=1;jettySize=auto;html=1;entryX=1;entryY=0.5;entryDx=0;entryDy=0;fontSize=13;" parent="1" source="lgsHo6YYuJnd4zfrtJT4-36" target="lgsHo6YYuJnd4zfrtJT4-29" edge="1">
          <mxGeometry x="0.5909" y="-20" relative="1" as="geometry">
            <mxPoint as="offset" />
          </mxGeometry>
        </mxCell>
        <mxCell id="lgsHo6YYuJnd4zfrtJT4-40" value="Визуализирует метрики" style="edgeStyle=orthogonalEdgeStyle;rounded=0;orthogonalLoop=1;jettySize=auto;html=1;entryX=1;entryY=0.5;entryDx=0;entryDy=0;fontSize=13;" parent="1" source="lgsHo6YYuJnd4zfrtJT4-36" target="lgsHo6YYuJnd4zfrtJT4-19" edge="1">
          <mxGeometry x="0.5946" y="-14" relative="1" as="geometry">
            <mxPoint as="offset" />
          </mxGeometry>
        </mxCell>
        <mxCell id="lgsHo6YYuJnd4zfrtJT4-43" style="edgeStyle=orthogonalEdgeStyle;rounded=0;orthogonalLoop=1;jettySize=auto;html=1;entryX=1;entryY=0.75;entryDx=0;entryDy=0;" parent="1" source="lgsHo6YYuJnd4zfrtJT4-36" target="lgsHo6YYuJnd4zfrtJT4-14" edge="1">
          <mxGeometry relative="1" as="geometry" />
        </mxCell>
        <mxCell id="lgsHo6YYuJnd4zfrtJT4-36" value="Администраторы" style="shape=actor;whiteSpace=wrap;html=1;verticalAlign=top;labelPosition=center;verticalLabelPosition=bottom;align=center;fontSize=16;" parent="1" vertex="1">
          <mxGeometry x="1035" y="600" width="60" height="90" as="geometry" />
        </mxCell>
        <mxCell id="lgsHo6YYuJnd4zfrtJT4-44" value="Собирает метрики" style="edgeStyle=orthogonalEdgeStyle;rounded=0;orthogonalLoop=1;jettySize=auto;html=1;entryX=0.728;entryY=1.006;entryDx=0;entryDy=0;entryPerimeter=0;jumpStyle=arc;fontSize=13;labelBackgroundColor=default;" parent="1" source="lgsHo6YYuJnd4zfrtJT4-18" target="lgsHo6YYuJnd4zfrtJT4-10" edge="1">
          <mxGeometry x="-0.7933" relative="1" as="geometry">
            <mxPoint x="150" y="694" as="sourcePoint" />
            <mxPoint x="150" y="460" as="targetPoint" />
            <mxPoint as="offset" />
          </mxGeometry>
        </mxCell>
        <mxCell id="lgsHo6YYuJnd4zfrtJT4-31" value="Kafka" style="strokeWidth=2;html=1;shape=mxgraph.flowchart.database;whiteSpace=wrap;fontSize=20;fillColor=#f5f5f5;fontColor=#333333;strokeColor=#666666;" parent="1" vertex="1">
          <mxGeometry x="80" y="505" width="140" height="130" as="geometry" />
        </mxCell>
        <mxCell id="lgsHo6YYuJnd4zfrtJT4-46" value="Имитирует сетевые&lt;br&gt;события" style="edgeStyle=orthogonalEdgeStyle;rounded=0;orthogonalLoop=1;jettySize=auto;html=1;fontSize=13;labelBackgroundColor=none;" parent="1" source="lgsHo6YYuJnd4zfrtJT4-45" target="lgsHo6YYuJnd4zfrtJT4-31" edge="1">
          <mxGeometry relative="1" as="geometry" />
        </mxCell>
        <mxCell id="lgsHo6YYuJnd4zfrtJT4-45" value="netflow_producer" style="rounded=0;whiteSpace=wrap;html=1;fontSize=16;" parent="1" vertex="1">
          <mxGeometry x="70" y="694" width="160" height="60" as="geometry" />
        </mxCell>
        <mxCell id="-7t62UyaoHXFbZlgWCff-10" value="" style="group" vertex="1" connectable="0" parent="1">
          <mxGeometry x="40" y="40" width="440" height="420" as="geometry" />
        </mxCell>
        <mxCell id="lgsHo6YYuJnd4zfrtJT4-11" value="" style="group;fillColor=#fff2cc;strokeColor=#d6b656;container=0;" parent="-7t62UyaoHXFbZlgWCff-10" vertex="1" connectable="0">
          <mxGeometry y="60" width="440" height="360" as="geometry" />
        </mxCell>
        <mxCell id="lgsHo6YYuJnd4zfrtJT4-10" value="Clickhouse Cluster" style="rounded=0;whiteSpace=wrap;html=1;fontSize=20;verticalAlign=top;fillColor=#fff2cc;strokeColor=#d6b656;container=0;" parent="-7t62UyaoHXFbZlgWCff-10" vertex="1">
          <mxGeometry width="440" height="420" as="geometry" />
        </mxCell>
        <mxCell id="-7t62UyaoHXFbZlgWCff-8" style="edgeStyle=orthogonalEdgeStyle;rounded=0;orthogonalLoop=1;jettySize=auto;html=1;exitX=0;exitY=0.5;exitDx=0;exitDy=0;exitPerimeter=0;entryX=0;entryY=0.75;entryDx=0;entryDy=0;" edge="1" parent="-7t62UyaoHXFbZlgWCff-10" source="lgsHo6YYuJnd4zfrtJT4-1" target="-7t62UyaoHXFbZlgWCff-1">
          <mxGeometry relative="1" as="geometry" />
        </mxCell>
        <mxCell id="lgsHo6YYuJnd4zfrtJT4-1" value="Clickhouse&lt;br&gt;Shard 1&lt;br&gt;Rep 1" style="strokeWidth=2;html=1;shape=mxgraph.flowchart.database;whiteSpace=wrap;fontSize=16;verticalAlign=middle;spacingTop=24;container=0;" parent="-7t62UyaoHXFbZlgWCff-10" vertex="1">
          <mxGeometry x="80" y="140" width="100" height="100" as="geometry" />
        </mxCell>
        <mxCell id="lgsHo6YYuJnd4zfrtJT4-6" value="Clickhouse&lt;br&gt;Shard 1&lt;br&gt;Rep 2" style="strokeWidth=2;html=1;shape=mxgraph.flowchart.database;whiteSpace=wrap;fontSize=16;verticalAlign=middle;spacingTop=24;container=0;" parent="-7t62UyaoHXFbZlgWCff-10" vertex="1">
          <mxGeometry x="260" y="140" width="100" height="100" as="geometry" />
        </mxCell>
        <mxCell id="-7t62UyaoHXFbZlgWCff-9" value="Координация&lt;br&gt;работы&lt;br&gt;хостов" style="edgeStyle=orthogonalEdgeStyle;rounded=0;orthogonalLoop=1;jettySize=auto;html=1;exitX=0;exitY=0.5;exitDx=0;exitDy=0;exitPerimeter=0;entryX=0;entryY=0.25;entryDx=0;entryDy=0;labelBackgroundColor=none;fontSize=13;" edge="1" parent="-7t62UyaoHXFbZlgWCff-10" source="lgsHo6YYuJnd4zfrtJT4-7" target="-7t62UyaoHXFbZlgWCff-1">
          <mxGeometry x="0.2" relative="1" as="geometry">
            <mxPoint as="offset" />
          </mxGeometry>
        </mxCell>
        <mxCell id="lgsHo6YYuJnd4zfrtJT4-7" value="Clickhouse&lt;br&gt;Shard 2&lt;br&gt;Rep 1" style="strokeWidth=2;html=1;shape=mxgraph.flowchart.database;whiteSpace=wrap;fontSize=16;verticalAlign=middle;spacingTop=24;container=0;" parent="-7t62UyaoHXFbZlgWCff-10" vertex="1">
          <mxGeometry x="80" y="290" width="100" height="100" as="geometry" />
        </mxCell>
        <mxCell id="-7t62UyaoHXFbZlgWCff-7" style="edgeStyle=orthogonalEdgeStyle;rounded=0;orthogonalLoop=1;jettySize=auto;html=1;exitX=1;exitY=0.5;exitDx=0;exitDy=0;exitPerimeter=0;entryX=1;entryY=0.25;entryDx=0;entryDy=0;" edge="1" parent="-7t62UyaoHXFbZlgWCff-10" source="lgsHo6YYuJnd4zfrtJT4-8" target="-7t62UyaoHXFbZlgWCff-1">
          <mxGeometry relative="1" as="geometry" />
        </mxCell>
        <mxCell id="lgsHo6YYuJnd4zfrtJT4-8" value="Clickhouse&lt;br&gt;Shard 2&lt;br&gt;Rep 2" style="strokeWidth=2;html=1;shape=mxgraph.flowchart.database;whiteSpace=wrap;fontSize=16;verticalAlign=middle;spacingTop=24;container=0;" parent="-7t62UyaoHXFbZlgWCff-10" vertex="1">
          <mxGeometry x="260" y="290" width="100" height="100" as="geometry" />
        </mxCell>
        <mxCell id="-7t62UyaoHXFbZlgWCff-1" value="Zookeeper" style="rounded=0;whiteSpace=wrap;html=1;fontSize=16;" vertex="1" parent="-7t62UyaoHXFbZlgWCff-10">
          <mxGeometry x="160" y="50" width="120" height="40" as="geometry" />
        </mxCell>
        <mxCell id="-7t62UyaoHXFbZlgWCff-5" value="Координация&lt;br&gt;работы&lt;br&gt;хостов" style="edgeStyle=orthogonalEdgeStyle;rounded=0;orthogonalLoop=1;jettySize=auto;html=1;exitX=1;exitY=0.75;exitDx=0;exitDy=0;entryX=1;entryY=0.5;entryDx=0;entryDy=0;entryPerimeter=0;startArrow=block;startFill=1;endArrow=none;fontSize=13;labelBackgroundColor=none;" edge="1" parent="-7t62UyaoHXFbZlgWCff-10" source="-7t62UyaoHXFbZlgWCff-1" target="lgsHo6YYuJnd4zfrtJT4-6">
          <mxGeometry x="0.2174" relative="1" as="geometry">
            <mxPoint as="offset" />
          </mxGeometry>
        </mxCell>
      </root>
    </mxGraphModel>
  </diagram>
</mxfile>
